<?xml version="1.0" standalone="no"?>
<!DOCTYPE svg PUBLIC "-//W3C//DTD SVG 20010904//EN"
 "http://www.w3.org/TR/2001/REC-SVG-20010904/DTD/svg10.dtd">
<svg version="1.0" xmlns="http://www.w3.org/2000/svg"
 width="300.000000pt" height="78.000000pt" viewBox="0 0 300.000000 78.000000"
 preserveAspectRatio="xMidYMid meet">
<metadata>
Created by potrace 1.10, written by Peter Selinger 2001-2011
</metadata>
<g transform="translate(0.000000,78.000000) scale(0.100000,-0.100000)"
fill="#000000" stroke="none">
<path d="M222 552 c0 -133 7 -192 24 -192 11 0 14 19 14 91 0 87 1 92 29 120
31 31 53 35 159 30 41 -2 52 0 52 12 0 18 -56 25 -192 25 l-86 0 0 -86z m52
37 c-24 -26 -30 -28 -33 -13 -3 19 23 44 48 44 10 0 5 -10 -15 -31z"/>
<path d="M516 632 c-2 -4 -5 -69 -5 -145 l-1 -137 145 0 145 0 0 145 0 145
-139 0 c-77 0 -142 -3 -145 -8z m243 -38 c8 -9 23 -224 15 -224 -1 0 -17 21
-35 48 -44 65 -96 118 -151 154 -27 16 -48 32 -48 34 0 8 212 -4 219 -12z
m-163 -50 c64 -43 134 -125 134 -156 0 -17 -7 -19 -97 -16 l-98 3 -3 84 c-4
122 0 128 64 85z"/>
<path d="M934 478 c-10 -15 -12 -245 -3 -260 4 -6 14 -8 23 -5 12 5 16 21 16
70 0 71 12 91 52 85 21 -3 23 -9 28 -78 4 -61 8 -75 23 -78 19 -4 19 -4 17 93
-1 38 -6 77 -11 87 -13 23 -71 24 -90 1 -12 -14 -15 -10 -19 37 -5 52 -21 73
-36 48z"/>
<path d="M1607 484 c-4 -4 -7 -67 -7 -141 0 -127 1 -133 20 -133 20 0 20 5 18
137 -3 127 -10 158 -31 137z"/>
<path d="M1855 481 c-6 -6 -9 -66 -7 -140 3 -122 4 -131 23 -131 17 0 19 7 19
69 0 75 12 95 52 89 21 -3 23 -9 28 -78 4 -67 7 -75 25 -75 17 0 20 8 23 55 2
31 -3 74 -10 95 -11 35 -17 40 -46 43 -21 2 -41 -3 -52 -13 -18 -16 -19 -15
-22 36 -3 52 -14 69 -33 50z"/>
<path d="M2071 476 c-8 -9 -11 -53 -9 -137 3 -116 4 -124 23 -124 18 0 20 8
23 65 3 73 14 92 51 88 25 -3 26 -6 31 -78 4 -61 8 -75 23 -78 15 -3 17 6 17
82 0 64 -4 88 -16 100 -20 21 -68 20 -85 -1 -12 -14 -15 -10 -19 37 -5 55 -18
71 -39 46z"/>
<path d="M2513 483 c-20 -7 -18 -269 2 -277 8 -3 19 2 24 11 8 15 11 15 25 4
22 -19 74 -16 96 4 33 30 44 71 31 116 -19 62 -68 82 -133 55 -14 -6 -16 -2
-11 31 5 40 -10 65 -34 56z m125 -125 c16 -16 16 -80 0 -96 -17 -17 -63 -15
-78 4 -8 8 -13 28 -13 44 0 16 5 36 13 44 15 19 61 21 78 4z"/>
<path d="M1717 444 c-4 -4 -7 -15 -7 -25 0 -9 -10 -19 -22 -22 -18 -5 -19 -8
-9 -21 7 -9 18 -14 23 -13 7 1 10 -21 9 -59 -2 -46 2 -65 14 -78 20 -19 58
-21 74 -3 13 16 5 27 -21 27 -15 0 -18 8 -18 50 0 58 2 66 14 62 4 -1 14 3 22
9 17 14 0 41 -21 33 -8 -4 -15 3 -17 18 -3 22 -27 35 -41 22z"/>
<path d="M1173 395 c-50 -35 -51 -131 -1 -168 43 -32 138 -19 138 19 0 12 -9
13 -50 8 -34 -4 -55 -3 -65 6 -32 26 -17 37 53 36 66 -1 67 -1 70 27 7 63 -89
111 -145 72z m97 -45 c10 -19 8 -20 -40 -20 -51 0 -60 6 -38 28 19 19 66 15
78 -8z"/>
<path d="M1385 387 c-20 -16 -28 -35 -32 -68 -4 -38 -1 -50 21 -76 29 -35 65
-45 98 -28 16 8 28 8 40 1 9 -6 20 -7 24 -3 8 8 8 186 -1 195 -3 3 -14 1 -25
-6 -12 -7 -21 -8 -25 -2 -12 19 -73 11 -100 -13z m99 -33 c19 -18 21 -75 4
-92 -20 -20 -65 -14 -82 10 -9 12 -16 29 -16 38 0 49 61 77 94 44z"/>
<path d="M2284 396 c-4 -9 -4 -46 -2 -81 4 -70 23 -102 63 -105 85 -9 105 15
105 121 0 71 -2 80 -17 77 -14 -2 -19 -15 -21 -58 -4 -93 -8 -102 -45 -98
l-32 3 -5 75 c-4 61 -8 75 -23 78 -9 2 -20 -4 -23 -12z"/>
<path d="M238 343 c-16 -4 -18 -19 -18 -144 l0 -139 145 0 145 0 0 140 0 140
-114 0 c-63 0 -120 2 -128 4 -7 2 -21 2 -30 -1z m240 -21 c13 -5 18 -202 5
-202 -13 0 -73 39 -98 63 -75 72 -105 123 -81 140 11 8 152 8 174 -1z m-204
-31 c24 -46 112 -136 166 -171 28 -18 50 -33 50 -35 0 -6 -216 8 -223 15 -5 4
-10 50 -13 101 -3 52 -7 100 -9 107 -9 24 15 11 29 -17z"/>
<path d="M769 266 c-1 -97 -6 -117 -34 -146 -25 -24 -44 -27 -196 -30 -9 0
-16 -7 -16 -15 0 -13 22 -15 139 -15 l138 0 0 138 c0 117 -2 139 -15 139 -12
0 -15 -15 -16 -71z m12 -160 c-6 -14 -15 -26 -20 -26 -5 0 -18 -3 -28 -7 -11
-4 -6 7 16 30 39 41 46 42 32 3z"/>
</g>
</svg>
